<?xml version="1.0" encoding="UTF-8" standalone="no"?>
<!-- Generator: Adobe Illustrator 17.1.0, SVG Export Plug-In . SVG Version: 6.00 Build 0)  -->

<svg
   version="1.1"
   id="Capa_1"
   x="0px"
   y="0px"
   viewBox="0 0 455 455"
   style="enable-background:new 0 0 455 455;"
   xml:space="preserve"
   sodipodi:docname="frame-with-a-flower-svgrepo-com.svg"
   inkscape:version="1.1.2 (0a00cf5339, 2022-02-04, custom)"
   xmlns:inkscape="http://www.inkscape.org/namespaces/inkscape"
   xmlns:sodipodi="http://sodipodi.sourceforge.net/DTD/sodipodi-0.dtd"
   xmlns="http://www.w3.org/2000/svg"
   xmlns:svg="http://www.w3.org/2000/svg"><defs
   id="defs43" /><sodipodi:namedview
   id="namedview41"
   pagecolor="#ffffff"
   bordercolor="#666666"
   borderopacity="1.0"
   inkscape:pageshadow="2"
   inkscape:pageopacity="0.0"
   inkscape:pagecheckerboard="0"
   showgrid="false"
   inkscape:zoom="1.3846154"
   inkscape:cx="227.86111"
   inkscape:cy="227.86111"
   inkscape:window-width="2500"
   inkscape:window-height="1570"
   inkscape:window-x="424"
   inkscape:window-y="1440"
   inkscape:window-maximized="1"
   inkscape:current-layer="Capa_1" />
<g
   id="g8">
	<path
   d="M447.5,60H7.5C3.358,60,0,63.358,0,67.5v320c0,4.142,3.358,7.5,7.5,7.5h440c4.142,0,7.5-3.358,7.5-7.5v-320   C455,63.358,451.642,60,447.5,60z M440,380H15V75h425V380z"
   id="path2" />
	
	<path
   d="M47.5,355h360c4.142,0,7.5-3.358,7.5-7.5v-240c0-4.142-3.358-7.5-7.5-7.5h-360c-4.142,0-7.5,3.358-7.5,7.5v40   c0,4.142,3.358,7.5,7.5,7.5s7.5-3.358,7.5-7.5V115h345v225H55V177.5c0-4.142-3.358-7.5-7.5-7.5s-7.5,3.358-7.5,7.5v170   C40,351.642,43.358,355,47.5,355z"
   id="path6" />
</g>
<g
   id="g10">
</g>
<g
   id="g12">
</g>
<g
   id="g14">
</g>
<g
   id="g16">
</g>
<g
   id="g18">
</g>
<g
   id="g20">
</g>
<g
   id="g22">
</g>
<g
   id="g24">
</g>
<g
   id="g26">
</g>
<g
   id="g28">
</g>
<g
   id="g30">
</g>
<g
   id="g32">
</g>
<g
   id="g34">
</g>
<g
   id="g36">
</g>
<g
   id="g38">
</g>
<text
   xml:space="preserve"
   style="font-style:normal;font-weight:normal;font-size:303.285px;line-height:1.25;font-family:sans-serif;fill:#000000;fill-opacity:1;stroke:none;stroke-width:1.57961"
   x="140.91212"
   y="334.71124"
   id="text1624"><tspan
     sodipodi:role="line"
     id="tspan1622"
     x="140.91212"
     y="334.71124"
     style="font-style:normal;font-variant:normal;font-weight:bold;font-stretch:normal;font-size:303.285px;font-family:sans-serif;-inkscape-font-specification:'sans-serif Bold';fill:#333333;stroke-width:1.57961">+</tspan></text></svg>
